<svg width="130" height="56" viewBox="0 0 130 56" fill="none" xmlns="http://www.w3.org/2000/svg">
<path d="M12.1453 26.1481C16.1827 25.0117 20.5249 23.1705 23.9582 20.1873C32.8503 12.4609 32.2784 0 32.2784 0C32.2784 0 17.2897 0.0660472 8.39763 7.79243C1.58937 13.7082 0.329157 22.3995 0.112399 26.1481L0 27V29L0.115777 29.9092C0.342061 33.6884 1.62383 42.3217 8.39764 48.2076C17.2897 55.9339 32.2784 56 32.2784 56C32.2784 56 32.8503 43.5391 23.9582 35.8127C20.582 32.8791 16.3269 31.0498 12.3471 29.9092H32.0357C32.262 33.6884 33.5438 42.3217 40.3176 48.2076C49.2096 55.9339 64.1983 56 64.1983 56C64.1983 56 64.7702 43.5391 55.8782 35.8127C52.502 32.8791 48.2469 31.0498 44.267 29.9092H63.9557C64.182 33.6884 65.4637 42.3217 72.2375 48.2076C81.1296 55.9339 96.1183 56 96.1183 56C96.1183 56 96.6902 43.5391 87.7981 35.8127C84.4219 32.8791 80.1668 31.0498 76.187 29.9092H95.8757C96.102 33.6884 97.3837 42.3217 104.158 48.2076C113.05 55.9339 128.038 56 128.038 56C128.038 56 128.61 43.5391 119.718 35.8127C116.342 32.8791 112.087 31.0498 108.107 29.9092H129.058V26.1481H107.905C111.943 25.0117 116.285 23.1705 119.718 20.1873C128.61 12.4609 128.038 0 128.038 0C128.038 0 113.05 0.0660472 104.158 7.79243C97.3493 13.7082 96.0891 22.3995 95.8723 26.1481H75.9852C80.0226 25.0117 84.3648 23.1705 87.7981 20.1873C96.6902 12.4609 96.1183 0 96.1183 0C96.1183 0 81.1296 0.0660472 72.2375 7.79243C65.4293 13.7082 64.1691 22.3995 63.9523 26.1481H44.0652C48.1026 25.0117 52.4448 23.1705 55.8781 20.1873C64.7702 12.4609 64.1983 0 64.1983 0C64.1983 0 49.2096 0.0660472 40.3176 7.79243C33.5093 13.7082 32.2491 22.3995 32.0323 26.1481H12.1453Z" fill="#E2725B"/>
</svg>
